<svg viewBox="0 0 23 21" fill="none" xmlns="http://www.w3.org/2000/svg">
<path fill-rule="evenodd" clip-rule="evenodd" d="M0.455994 1C0.455994 0.699558 0.699551 0.456001 0.999994 0.456001H3.50561C3.76513 0.456001 3.98851 0.63932 4.03915 0.893852L4.46201 3.0193H21.8317C21.9893 3.0193 22.1391 3.08759 22.2424 3.20651C22.3457 3.32544 22.3924 3.48331 22.3704 3.6393L21.1565 12.2437C21.1186 12.5122 20.8889 12.7117 20.6178 12.7117H15.9532V12.7279H14.9292V12.7117H6.39034L6.85968 15.0708H19.3225C19.6229 15.0708 19.8664 15.3143 19.8664 15.6148C19.8664 15.9152 19.6229 16.1588 19.3225 16.1588H6.41325C6.15372 16.1588 5.93034 15.9755 5.8797 15.7209L3.05917 1.544H0.999994C0.699551 1.544 0.455994 1.30044 0.455994 1ZM6.17388 11.6237H9.95982V8.21182H5.49507L6.17388 11.6237ZM10.9838 11.6237H14.9292V8.21182H10.9838V11.6237ZM15.9532 11.6237H20.1452L20.6265 8.21182H15.9532V11.6237ZM20.771 7.18782L21.2056 4.1073H15.9532V7.18782H20.771ZM14.9292 4.1073H10.9838V7.18782H14.9292V4.1073ZM9.95982 4.1073H4.67847L5.29135 7.18782H9.95982V4.1073ZM7.06223 20.1644C7.81824 20.1644 8.43111 19.5516 8.43111 18.7956C8.43111 18.0395 7.81824 17.4267 7.06223 17.4267C6.30621 17.4267 5.69334 18.0395 5.69334 18.7956C5.69334 19.5516 6.30621 20.1644 7.06223 20.1644ZM20.1644 18.7956C20.1644 19.5516 19.5516 20.1644 18.7956 20.1644C18.0395 20.1644 17.4267 19.5516 17.4267 18.7956C17.4267 18.0395 18.0395 17.4267 18.7956 17.4267C19.5516 17.4267 20.1644 18.0395 20.1644 18.7956Z" />
</svg>
