<svg viewBox="0 0 16 16" fill="none" xmlns="http://www.w3.org/2000/svg">
<path fill-rule="evenodd" clip-rule="evenodd" d="M15.2911 6.34648L8 0.405602L0.708924 6.34648C0.511632 6.50723 0.482014 6.79749 0.642771 6.99478C0.803527 7.19207 1.09378 7.22169 1.29107 7.06093L8 1.5944L14.7089 7.06093C14.9062 7.22169 15.1965 7.19207 15.3572 6.99478C15.518 6.79749 15.4884 6.50723 15.2911 6.34648ZM3.46078 7.22222C3.46078 6.96773 3.25448 6.76142 2.99998 6.76142C2.74549 6.76142 2.53918 6.96773 2.53918 7.22222V15.4608H13.4608V7.22222C13.4608 6.96773 13.2545 6.76142 13 6.76142C12.7455 6.76142 12.5392 6.96773 12.5392 7.22222V14.5392H3.46078V7.22222Z" />
</svg>
