<svg viewBox="0 0 18 18" fill="none" xmlns="http://www.w3.org/2000/svg">
<path fill-rule="evenodd" clip-rule="evenodd" d="M4 0C4.27614 0 4.5 0.223858 4.5 0.5V2.5H5.5V0.5C5.5 0.223858 5.72386 0 6 0C6.27614 0 6.5 0.223858 6.5 0.5V2.5H7.5V0.5C7.5 0.223858 7.72386 0 8 0C8.27614 0 8.5 0.223858 8.5 0.5V2.5H9.5V0.5C9.5 0.223858 9.72386 0 10 0C10.2761 0 10.5 0.223858 10.5 0.5V2.5H11.5V0.5C11.5 0.223858 11.7239 0 12 0C12.2761 0 12.5 0.223858 12.5 0.5V2.5H13.5V0.5C13.5 0.223858 13.7239 0 14 0C14.2761 0 14.5 0.223858 14.5 0.5V2.5C15.0523 2.5 15.5 2.94772 15.5 3.5H17.5C17.7761 3.5 18 3.72386 18 4C18 4.27614 17.7761 4.5 17.5 4.5H15.5V5.5H17.5C17.7761 5.5 18 5.72386 18 6C18 6.27614 17.7761 6.5 17.5 6.5H15.5V7.5H17.5C17.7761 7.5 18 7.72386 18 8C18 8.27614 17.7761 8.5 17.5 8.5H15.5V9.5H17.5C17.7761 9.5 18 9.72386 18 10C18 10.2761 17.7761 10.5 17.5 10.5H15.5V11.5H17.5C17.7761 11.5 18 11.7239 18 12C18 12.2761 17.7761 12.5 17.5 12.5H15.5V13.5H17.5C17.7761 13.5 18 13.7239 18 14C18 14.2761 17.7761 14.5 17.5 14.5H15.5C15.5 15.0523 15.0523 15.5 14.5 15.5V17.5C14.5 17.7761 14.2761 18 14 18C13.7239 18 13.5 17.7761 13.5 17.5V15.5H12.5V17.5C12.5 17.7761 12.2761 18 12 18C11.7239 18 11.5 17.7761 11.5 17.5V15.5H10.5V17.5C10.5 17.7761 10.2761 18 10 18C9.72386 18 9.5 17.7761 9.5 17.5V15.5H8.5V17.5C8.5 17.7761 8.27614 18 8 18C7.72386 18 7.5 17.7761 7.5 17.5V15.5H6.5V17.5C6.5 17.7761 6.27614 18 6 18C5.72386 18 5.5 17.7761 5.5 17.5V15.5H4.5V17.5C4.5 17.7761 4.27614 18 4 18C3.72386 18 3.5 17.7761 3.5 17.5V15.5C2.94772 15.5 2.5 15.0523 2.5 14.5H0.5C0.223858 14.5 0 14.2761 0 14C0 13.7239 0.223858 13.5 0.5 13.5H2.5V12.5H0.5C0.223858 12.5 0 12.2761 0 12C0 11.7239 0.223858 11.5 0.5 11.5H2.5V10.5H0.5C0.223858 10.5 0 10.2761 0 10C0 9.72386 0.223858 9.5 0.5 9.5H2.5V8.5H0.5C0.223858 8.5 0 8.27614 0 8C0 7.72386 0.223858 7.5 0.5 7.5H2.5V6.5H0.5C0.223858 6.5 0 6.27614 0 6C0 5.72386 0.223858 5.5 0.5 5.5H2.5V4.5H0.5C0.223858 4.5 0 4.27614 0 4C0 3.72386 0.223858 3.5 0.5 3.5H2.5C2.5 2.94772 2.94772 2.5 3.5 2.5V0.5C3.5 0.223858 3.72386 0 4 0ZM14.5 3.5H3.5V14.5H14.5V3.5Z"/>
</svg>
