<svg width="9" height="9" viewBox="0 0 9 9" fill="none" xmlns="http://www.w3.org/2000/svg">
<path fill-rule="evenodd" clip-rule="evenodd" d="M7.75042 2.66389C8.14095 2.27337 8.14095 1.6402 7.75042 1.24968C7.3599 0.859156 6.72673 0.859156 6.33621 1.24968L4.28285 3.30304L2.22958 1.24977C1.83905 0.859249 1.20589 0.859249 0.815366 1.24977C0.424841 1.6403 0.424841 2.27346 0.815366 2.66399L2.86863 4.71726L0.747239 6.83865C0.356715 7.22918 0.356714 7.86234 0.747239 8.25287C1.13776 8.64339 1.77093 8.64339 2.16145 8.25287L4.28285 6.13147L6.40434 8.25296C6.79486 8.64348 7.42803 8.64348 7.81855 8.25296C8.20908 7.86243 8.20908 7.22927 7.81855 6.83875L5.69706 4.71726L7.75042 2.66389Z"/>
</svg>
